<svg xmlns="http://www.w3.org/2000/svg" viewBox="0 0 178 94" fill="none">
  <rect x="0" y="0" width="10" height="10" rx="1.5" fill="currentColor" />
  <rect x="12" y="0" width="10" height="10" rx="1.5" fill="currentColor" />
  <rect x="72" y="0" width="10" height="10" rx="1.5" fill="currentColor" />
  <rect x="84" y="0" width="10" height="10" rx="1.5" fill="currentColor" />
  <rect x="96" y="0" width="10" height="10" rx="1.5" fill="currentColor" />
  <rect x="108" y="0" width="10" height="10" rx="1.5" fill="currentColor" />
  <rect x="120" y="0" width="10" height="10" rx="1.5" fill="currentColor" />
  <rect x="132" y="0" width="10" height="10" rx="1.5" fill="currentColor" />
  <rect x="144" y="0" width="10" height="10" rx="1.5" fill="currentColor" />
  <rect x="156" y="0" width="10" height="10" rx="1.5" fill="currentColor" />
  <rect x="0" y="12" width="10" height="10" rx="1.5" fill="currentColor" />
  <rect x="12" y="12" width="10" height="10" rx="1.5" fill="currentColor" />
  <rect x="24" y="12" width="10" height="10" rx="1.5" fill="currentColor" />
  <rect x="60" y="12" width="10" height="10" rx="1.5" fill="currentColor" />
  <rect x="72" y="12" width="10" height="10" rx="1.5" fill="currentColor" />
  <rect x="84" y="12" width="10" height="10" rx="1.5" fill="currentColor" />
  <rect x="96" y="12" width="10" height="10" rx="1.5" fill="currentColor" />
  <rect x="108" y="12" width="10" height="10" rx="1.5" fill="currentColor" />
  <rect x="120" y="12" width="10" height="10" rx="1.5" fill="currentColor" />
  <rect x="132" y="12" width="10" height="10" rx="1.5" fill="currentColor" />
  <rect x="144" y="12" width="10" height="10" rx="1.5" fill="currentColor" />
  <rect x="156" y="12" width="10" height="10" rx="1.5" fill="currentColor" />
  <rect x="0" y="24" width="10" height="10" rx="1.5" fill="currentColor" />
  <rect x="12" y="24" width="10" height="10" rx="1.5" fill="currentColor" />
  <rect x="24" y="24" width="10" height="10" rx="1.5" fill="currentColor" />
  <rect x="36" y="24" width="10" height="10" rx="1.5" fill="currentColor" />
  <rect x="48" y="24" width="10" height="10" rx="1.5" fill="currentColor" />
  <rect x="60" y="24" width="10" height="10" rx="1.5" fill="currentColor" />
  <rect x="72" y="24" width="10" height="10" rx="1.5" fill="currentColor" />
  <rect x="84" y="24" width="10" height="10" rx="1.5" fill="currentColor" />
  <rect x="120" y="24" width="10" height="10" rx="1.5" fill="currentColor" />
  <rect x="132" y="24" width="10" height="10" rx="1.5" fill="currentColor" />
  <rect x="0" y="36" width="10" height="10" rx="1.5" fill="currentColor" />
  <rect x="12" y="36" width="10" height="10" rx="1.5" fill="currentColor" />
  <rect x="36" y="36" width="10" height="10" rx="1.5" fill="currentColor" />
  <rect x="48" y="36" width="10" height="10" rx="1.5" fill="currentColor" />
  <rect x="72" y="36" width="10" height="10" rx="1.5" fill="currentColor" />
  <rect x="84" y="36" width="10" height="10" rx="1.5" fill="currentColor" />
  <rect x="120" y="36" width="10" height="10" rx="1.5" fill="currentColor" />
  <rect x="132" y="36" width="10" height="10" rx="1.5" fill="currentColor" />
  <rect x="0" y="48" width="10" height="10" rx="1.5" fill="currentColor" />
  <rect x="12" y="48" width="10" height="10" rx="1.5" fill="currentColor" />
  <rect x="72" y="48" width="10" height="10" rx="1.5" fill="currentColor" />
  <rect x="84" y="48" width="10" height="10" rx="1.5" fill="currentColor" />
  <rect x="120" y="48" width="10" height="10" rx="1.5" fill="currentColor" />
  <rect x="132" y="48" width="10" height="10" rx="1.5" fill="currentColor" />
  <rect x="0" y="60" width="10" height="10" rx="1.5" fill="currentColor" />
  <rect x="12" y="60" width="10" height="10" rx="1.5" fill="currentColor" />
  <rect x="72" y="60" width="10" height="10" rx="1.5" fill="currentColor" />
  <rect x="84" y="60" width="10" height="10" rx="1.5" fill="currentColor" />
  <rect x="120" y="60" width="10" height="10" rx="1.5" fill="currentColor" />
  <rect x="132" y="60" width="10" height="10" rx="1.5" fill="currentColor" />
  <rect x="0" y="72" width="10" height="10" rx="1.5" fill="currentColor" />
  <rect x="12" y="72" width="10" height="10" rx="1.5" fill="currentColor" />
  <rect x="72" y="72" width="10" height="10" rx="1.5" fill="currentColor" />
  <rect x="84" y="72" width="10" height="10" rx="1.5" fill="currentColor" />
  <rect x="120" y="72" width="10" height="10" rx="1.5" fill="currentColor" />
  <rect x="132" y="72" width="10" height="10" rx="1.5" fill="currentColor" />
  <rect x="156" y="72" width="10" height="10" rx="1.5" fill="currentColor" />
  <rect x="168" y="72" width="10" height="10" rx="1.5" fill="currentColor" />
  <rect x="0" y="84" width="10" height="10" rx="1.5" fill="currentColor" />
  <rect x="12" y="84" width="10" height="10" rx="1.5" fill="currentColor" />
  <rect x="72" y="84" width="10" height="10" rx="1.5" fill="currentColor" />
  <rect x="84" y="84" width="10" height="10" rx="1.5" fill="currentColor" />
  <rect x="120" y="84" width="10" height="10" rx="1.5" fill="currentColor" />
  <rect x="132" y="84" width="10" height="10" rx="1.5" fill="currentColor" />
  <rect x="156" y="84" width="10" height="10" rx="1.5" fill="currentColor" />
  <rect x="168" y="84" width="10" height="10" rx="1.5" fill="currentColor" />
</svg>
